<?xml version="1.0" standalone="no"?>
<!DOCTYPE svg PUBLIC "-//W3C//DTD SVG 20010904//EN"
 "http://www.w3.org/TR/2001/REC-SVG-20010904/DTD/svg10.dtd">
<svg version="1.0" xmlns="http://www.w3.org/2000/svg"
 width="847.000000pt" height="847.000000pt" viewBox="0 0 847.000000 847.000000"
 preserveAspectRatio="xMidYMid meet">
<metadata>
Created by potrace 1.14, written by Peter Selinger 2001-2017
</metadata>
<g transform="translate(0.000000,847.000000) scale(0.100000,-0.100000)"
fill="#000000" stroke="none">
<path d="M4019 8386 c-2 -2 -52 -7 -110 -10 -58 -4 -115 -8 -125 -10 -10 -2
-44 -7 -75 -10 -31 -4 -65 -8 -75 -10 -11 -2 -41 -7 -69 -10 -27 -4 -57 -9
-65 -11 -8 -2 -26 -6 -40 -9 -76 -13 -237 -49 -257 -57 -13 -5 -23 -7 -23 -4
0 2 -15 -2 -32 -10 -18 -7 -37 -14 -43 -14 -38 -5 -304 -90 -362 -117 -17 -8
-33 -14 -36 -14 -3 0 -18 -5 -34 -12 -15 -6 -30 -12 -33 -13 -5 -1 -36 -15
-140 -62 -19 -9 -37 -17 -40 -17 -7 -2 -192 -95 -210 -106 -8 -5 -53 -30 -100
-56 -165 -92 -537 -346 -548 -376 -2 -4 -8 -8 -14 -8 -6 0 -20 -10 -32 -22
-12 -13 -42 -39 -66 -60 -85 -69 -276 -252 -365 -349 -196 -214 -394 -481
-530 -714 -32 -55 -61 -102 -64 -105 -3 -3 -7 -10 -8 -15 -1 -6 -16 -37 -35
-70 -27 -49 -109 -221 -148 -310 -39 -90 -68 -165 -63 -165 3 0 1 -6 -5 -12
-10 -13 -65 -174 -96 -278 -28 -95 -57 -204 -62 -230 -3 -14 -8 -34 -11 -45
-4 -11 -7 -27 -8 -35 -2 -13 -15 -83 -28 -145 -3 -11 -8 -45 -13 -75 -4 -30
-8 -57 -9 -60 -2 -8 -18 -133 -21 -160 -15 -160 -19 -243 -18 -470 0 -302 6
-390 43 -635 6 -38 13 -81 15 -95 3 -14 7 -36 10 -50 15 -81 40 -194 57 -255
11 -38 22 -79 24 -90 5 -30 42 -153 50 -165 3 -6 8 -21 11 -34 12 -68 199
-521 230 -556 7 -8 13 -18 13 -23 1 -15 111 -220 146 -272 33 -49 44 -69 57
-95 7 -14 15 -27 19 -30 3 -3 25 -34 49 -70 40 -60 138 -194 167 -230 183
-226 320 -373 509 -547 75 -68 205 -175 289 -237 22 -17 42 -32 45 -35 12 -14
70 -51 79 -51 5 0 11 -4 13 -9 6 -16 317 -211 336 -211 6 0 12 -4 14 -9 2 -5
10 -11 18 -13 8 -2 17 -6 20 -9 7 -8 125 -67 225 -114 44 -20 87 -41 97 -45
10 -6 20 -5 26 3 26 33 82 118 82 124 0 3 6 14 14 22 22 26 135 249 128 255
-3 3 0 6 6 6 7 0 12 7 12 15 0 9 6 26 14 38 16 25 118 281 147 367 30 91 75
214 86 235 6 11 12 23 12 27 3 16 27 77 61 153 5 11 23 54 41 95 17 41 44 104
60 139 16 35 39 85 50 111 l20 47 72 -19 c83 -21 152 -32 219 -32 27 -1 48 -4
48 -8 0 -4 12 -3 28 1 15 4 39 4 55 0 15 -4 27 -4 27 0 0 5 10 7 23 6 22 -3
173 19 207 30 10 3 27 8 38 10 92 17 280 96 377 158 110 70 252 194 238 208
-9 8 -123 47 -163 56 -124 27 -324 35 -425 19 -22 -4 -56 -9 -75 -12 -162 -24
-398 -117 -524 -208 -28 -19 -51 -34 -53 -32 -2 1 16 41 39 87 23 46 43 90 44
98 1 8 6 17 11 20 4 3 27 44 51 91 49 98 93 179 107 200 5 8 10 17 10 20 0 3
23 44 50 92 53 96 49 94 135 64 25 -8 60 -18 79 -21 19 -3 37 -8 41 -10 12 -7
167 -18 250 -17 79 1 132 6 190 17 13 2 42 7 63 10 45 7 218 59 247 75 11 6
20 7 20 3 0 -4 4 -3 8 2 4 6 39 26 77 45 109 54 285 184 285 211 0 9 -143 65
-185 72 -16 3 -37 7 -45 10 -52 19 -385 29 -450 14 -14 -3 -41 -8 -61 -11 -20
-3 -42 -8 -50 -10 -8 -3 -25 -7 -39 -10 -83 -15 -301 -107 -370 -156 -15 -11
-31 -20 -34 -20 -6 0 21 48 34 60 3 3 16 26 30 53 13 26 28 47 32 47 5 0 8 5
8 11 0 5 57 96 128 200 70 105 136 204 146 221 15 24 24 29 45 24 135 -30 198
-38 296 -39 65 0 195 10 235 19 14 3 36 7 50 10 14 3 41 9 60 14 19 5 38 10
42 10 4 0 27 8 50 16 24 9 48 17 54 18 7 1 18 7 26 14 8 6 23 13 34 15 47 8
221 111 304 179 57 48 150 142 150 153 0 13 -82 39 -160 51 -19 3 -51 9 -70
13 -39 8 -262 6 -325 -3 -71 -10 -230 -48 -239 -57 -6 -5 -17 -9 -25 -9 -19 0
-225 -91 -229 -102 -2 -4 -8 -8 -14 -8 -6 0 -26 -11 -45 -26 -18 -14 -33 -21
-33 -17 0 4 25 40 55 78 31 39 61 77 68 85 29 37 143 176 152 186 6 6 35 19
65 29 30 10 84 32 120 49 36 16 68 29 73 28 4 -1 7 2 7 6 0 5 12 14 28 21 27
12 102 60 112 72 3 3 12 10 21 15 76 43 269 235 357 354 56 77 165 259 167
280 1 3 11 27 23 55 23 50 67 193 77 250 3 17 7 42 10 57 7 36 -3 40 -66 22
-68 -19 -67 -19 -109 -35 -19 -7 -38 -12 -42 -11 -5 1 -8 -2 -8 -8 0 -5 -6
-10 -13 -10 -22 0 -185 -90 -232 -128 -5 -4 -32 -23 -59 -41 -68 -47 -316
-295 -316 -316 0 -4 -13 -23 -29 -43 -38 -47 -123 -192 -113 -192 4 0 2 -4 -5
-8 -10 -6 -48 -82 -59 -117 -2 -5 -13 -37 -25 -70 -12 -33 -29 -93 -39 -132
-10 -40 -24 -79 -32 -87 -7 -7 -27 -31 -45 -52 -17 -22 -39 -49 -50 -61 -10
-12 -42 -54 -72 -93 -30 -38 -56 -69 -57 -67 -2 1 3 21 11 44 8 23 16 52 19
65 2 12 9 41 14 63 19 70 26 156 26 295 0 165 -12 248 -56 390 -23 75 -96 230
-109 230 -5 0 -16 -12 -26 -27 -10 -16 -20 -30 -23 -33 -18 -16 -93 -156 -119
-220 -72 -182 -101 -347 -96 -550 2 -80 6 -156 9 -170 2 -14 7 -43 11 -65 8
-53 71 -238 96 -281 25 -45 24 -50 -8 -93 -16 -20 -32 -43 -38 -52 -5 -9 -54
-82 -107 -163 -54 -80 -98 -150 -98 -156 0 -5 -6 -13 -12 -17 -13 -8 -17 -15
-60 -92 -11 -20 -24 -40 -28 -45 -9 -9 -8 42 1 59 14 27 -2 401 -18 428 -2 4
-7 20 -9 35 -14 81 -56 203 -100 297 -16 33 -31 62 -34 65 -3 3 -14 22 -25 43
-11 21 -29 48 -40 62 -11 13 -30 37 -43 53 -12 16 -37 46 -56 65 l-34 36 -20
-52 c-41 -107 -38 -96 -56 -178 -14 -63 -27 -150 -26 -176 0 -15 0 -24 -1
-105 -2 -191 45 -402 127 -573 32 -68 90 -169 112 -196 6 -8 26 -31 44 -53 31
-37 44 -66 30 -66 -4 0 -18 -21 -32 -48 -13 -26 -27 -49 -30 -52 -3 -3 -18
-30 -33 -60 -63 -123 -102 -195 -109 -198 -5 -2 -8 -12 -8 -23 0 -10 -5 -19
-12 -19 -6 0 -8 -3 -5 -7 4 -3 3 -11 -2 -17 -16 -20 -86 -161 -83 -169 1 -4
-3 -7 -8 -7 -6 0 -10 -7 -10 -15 0 -8 -4 -15 -9 -15 -5 0 -5 16 0 38 8 36 5
288 -5 347 -2 17 -7 44 -10 60 -24 156 -111 382 -190 500 -64 94 -174 225
-190 225 -16 0 -65 -179 -81 -295 -19 -147 3 -390 51 -554 9 -31 17 -60 18
-66 1 -5 7 -20 14 -32 7 -12 12 -27 12 -33 0 -12 71 -162 81 -170 4 -3 9 -15
13 -27 4 -13 12 -23 17 -23 5 0 9 -5 9 -11 0 -12 56 -88 104 -139 45 -50 48
-57 34 -82 -6 -13 -13 -27 -14 -33 -1 -5 -19 -46 -40 -90 -21 -44 -38 -82 -39
-85 -3 -11 -18 -46 -30 -75 -31 -69 -58 -132 -66 -154 -9 -21 -11 -22 -27 -9
-14 13 -27 20 -62 33 -3 1 -20 6 -38 10 -18 4 -35 12 -38 16 -3 5 -12 9 -21 9
-17 0 -206 93 -268 132 -46 28 -175 84 -285 124 -41 14 -87 35 -102 45 -14 11
-30 19 -35 19 -15 1 -99 85 -129 130 -27 40 -65 123 -121 260 -48 119 -105
220 -154 275 -69 77 -136 143 -178 175 -62 47 -101 95 -138 170 -21 41 -37 78
-36 82 2 4 -4 26 -13 50 -8 24 -17 59 -20 78 -27 185 -55 234 -165 284 -154
69 -174 82 -245 154 -35 37 -99 142 -99 164 0 3 -3 10 -7 14 -5 4 -8 17 -8 29
0 12 -3 25 -7 29 -23 23 -23 315 1 436 13 65 16 79 32 135 9 33 16 85 16 115
0 50 -9 88 -73 300 -41 134 -29 286 31 398 27 51 91 132 104 132 5 0 98 61
106 69 3 4 10 7 16 8 17 3 176 113 191 131 7 9 39 55 70 102 58 86 205 240
229 240 7 0 17 6 21 14 14 23 193 140 342 222 66 36 92 61 138 132 30 47 65
116 67 132 1 3 16 35 34 72 37 75 88 120 188 164 125 54 171 79 229 122 33 24
84 58 114 75 30 17 82 56 115 87 128 118 215 179 346 245 38 19 71 34 72 34 2
-1 21 7 43 18 41 21 245 93 280 98 11 2 40 9 65 15 54 14 88 22 115 25 11 2
20 4 20 5 0 2 23 6 85 16 57 9 269 10 335 1 28 -3 68 -9 90 -12 22 -3 51 -7
65 -10 14 -3 34 -7 45 -9 11 -2 38 -7 60 -11 22 -4 49 -9 60 -11 25 -4 121
-21 159 -29 16 -3 33 -8 38 -11 4 -3 47 -7 96 -9 107 -5 224 -14 277 -20 22
-3 78 -9 125 -15 47 -6 96 -12 110 -15 14 -2 43 -6 65 -9 22 -3 54 -8 70 -11
118 -22 192 -39 275 -61 52 -14 100 -27 105 -28 6 -2 19 -6 30 -10 143 -53
191 -72 193 -78 2 -4 10 -8 18 -8 16 0 125 -64 162 -95 43 -36 104 -99 131
-135 14 -19 28 -37 31 -40 30 -28 117 -194 145 -275 25 -77 86 -226 108 -265
10 -19 29 -53 40 -75 12 -22 24 -42 27 -45 3 -3 11 -16 18 -30 7 -14 25 -45
42 -70 127 -196 177 -301 198 -415 8 -42 7 -234 -1 -270 -32 -147 -36 -244
-10 -296 36 -73 125 -180 273 -326 69 -69 282 -223 307 -223 6 0 13 -4 15 -8
2 -5 45 -37 96 -71 93 -62 94 -63 89 -99 -9 -71 -30 -102 -116 -172 -24 -19
-48 -40 -55 -46 -6 -5 -49 -39 -96 -74 -47 -35 -90 -70 -96 -77 -15 -17 10
-89 55 -162 38 -62 54 -121 42 -153 -5 -12 -32 -46 -60 -75 -85 -87 -85 -99 6
-196 65 -68 65 -82 0 -165 -113 -143 -113 -143 -91 -242 24 -112 22 -343 -3
-383 -4 -7 -8 -14 -8 -17 -1 -3 -8 -18 -17 -35 -42 -78 -119 -113 -310 -140
-234 -33 -380 -46 -764 -70 -90 -5 -158 -28 -211 -72 -40 -32 -112 -123 -97
-123 3 0 -1 -11 -10 -24 -18 -28 -62 -175 -70 -233 -7 -49 -14 -88 -28 -138
-6 -22 -11 -44 -12 -50 -4 -18 -37 -130 -43 -145 -3 -8 -7 -17 -7 -20 -1 -3
-5 -11 -9 -17 -5 -7 -6 -13 -3 -13 4 0 -42 -134 -74 -215 -6 -16 -13 -37 -15
-45 -2 -8 -18 -49 -35 -90 -17 -41 -31 -77 -31 -80 -1 -3 -8 -21 -16 -40 -8
-19 -26 -64 -40 -100 -13 -35 -27 -69 -31 -75 -4 -5 -7 -14 -8 -20 -1 -5 -22
-55 -46 -110 -41 -92 -62 -153 -73 -214 -5 -28 15 -70 63 -131 94 -119 141
-129 309 -68 59 22 127 49 150 59 24 10 46 19 49 19 8 0 115 51 259 122 90 45
212 113 313 176 20 12 47 28 60 34 12 6 22 15 22 20 0 4 5 8 11 8 11 0 91 53
117 77 7 7 17 13 21 13 4 0 17 8 28 17 11 10 35 29 54 43 41 31 190 150 206
164 6 6 37 34 69 61 74 63 293 282 359 359 28 32 55 63 60 69 15 18 99 121
107 132 4 6 21 26 38 45 16 19 30 40 30 47 0 7 4 13 8 13 9 0 232 332 232 346
0 4 6 15 14 23 7 9 26 41 42 71 16 30 33 58 37 61 5 3 8 8 7 10 -1 2 31 72 72
154 40 83 73 152 74 155 1 7 14 39 35 87 11 23 19 46 19 50 0 4 6 20 14 34 7
14 16 37 20 52 3 14 11 39 18 54 6 15 12 30 13 33 1 3 4 12 7 20 3 8 16 49 28
90 12 41 24 82 28 90 3 8 6 22 8 30 1 8 7 31 13 50 5 19 13 49 17 65 10 39 9
37 17 60 3 11 9 36 11 55 3 19 10 53 15 76 6 23 12 57 15 77 2 20 7 40 9 44 3
4 8 37 12 73 4 36 10 74 13 85 3 11 8 238 10 505 3 478 -1 590 -33 760 -12 63
-18 97 -20 115 -2 11 -4 22 -5 25 -1 3 -3 10 -4 15 -12 73 -62 266 -110 430
-2 6 -3 13 -2 16 0 3 -5 13 -13 22 -7 10 -11 17 -8 17 6 0 -31 105 -93 260
-41 104 -173 378 -227 475 -59 104 -88 150 -95 153 -4 2 -8 8 -8 14 0 18 -240
363 -270 388 -3 3 -17 21 -30 40 -14 19 -32 42 -40 50 -8 9 -37 42 -65 75 -60
71 -329 341 -406 407 -113 97 -294 238 -306 238 -7 0 -13 4 -13 8 0 8 -67 56
-188 134 -99 64 -232 140 -367 208 -116 59 -173 85 -295 137 -19 8 -44 19 -55
24 -26 12 -247 90 -260 93 -5 1 -15 5 -21 8 -6 4 -25 10 -42 13 -17 3 -43 10
-57 15 -29 11 -177 50 -215 56 -14 3 -32 7 -40 11 -8 3 -24 7 -35 9 -11 1 -33
5 -50 9 -66 13 -191 35 -229 40 -23 3 -50 7 -61 9 -11 2 -54 7 -96 10 -41 4
-89 9 -105 12 -35 6 -580 15 -585 10z"/>
</g>
</svg>
