<svg width="847" height="830" viewBox="0 0 847 830" fill="none" xmlns="http://www.w3.org/2000/svg">
<g clip-path="url(#clip0_7_50)">
<path d="M849.096 416.136C844.206 179.542 646.951 -7.86344 409.879 0.261825C178.22 8.21235 -4.88934 202.17 0.087877 434.046C3.84262 605.376 108.364 750.757 255.934 814.798C276.891 788.15 294.355 740.272 303 713.712C311.644 691.958 320.813 670.727 330.418 650.108C373.554 665.136 431.447 650.894 463.056 616.471L464.366 615.073H464.191C425.771 598.211 372.943 606.948 338.102 633.945C349.977 609.307 362.551 585.543 375.737 562.565C418.087 579.514 476.504 567.982 509.685 535.131L510.995 533.821H510.82C473.884 515.473 421.667 521.24 385.691 545.616C398.789 523.773 412.498 502.805 426.731 482.623C470.653 496.34 528.459 479.478 558.759 443.394L559.981 441.997H559.806C524.005 428.105 476.94 436.318 443.497 459.645C444.719 458.072 445.942 456.412 447.164 454.84C455.721 443.744 464.366 432.91 473.273 422.339C525.141 407.661 571.42 354.803 578.755 300.11L579.017 297.926H578.842C525.228 308.672 475.543 361.443 465.589 417.271C457.031 427.406 448.736 437.803 440.528 448.462C453.888 412.029 451.53 367.908 431.971 337.417L430.835 338.727C401.321 376.033 396.606 436.842 419.484 477.119C406.037 496.165 393.026 515.91 380.627 536.442C388.398 495.204 375.213 447.326 346.223 420.329H346.135L345.35 421.902C326.227 464.974 336.443 524.385 367.965 557.847C355.566 579.427 343.69 601.793 332.426 624.946C339.237 582.048 323.869 532.51 293.22 505.601H293.132L292.434 507.261C274.97 552.43 288.417 613.588 322.297 646.351C314.962 662.252 307.802 678.416 300.991 695.016C299.332 693.356 297.236 692.045 294.791 691.259C285.972 688.638 273.747 684.007 260.3 675.969C251.394 670.64 241.963 666.271 232.096 663.039C193.85 650.458 199.438 632.023 179.442 594.979C178.133 592.532 162.328 576.02 158.922 573.049C158.049 572.35 148.007 566.409 142.855 555.576C138.14 545.616 135.521 536.442 134.56 527.443C133.25 515.386 128.273 507.523 116.572 503.417C60.2511 483.933 85.3991 410.719 87.4075 400.933C89.0665 392.633 81.819 374.548 79.1121 364.588C78.8501 363.365 78.5882 361.88 78.1516 360.132C74.0476 340.474 83.2161 323.874 89.9397 317.06C96.7507 310.245 120.065 299.324 125.042 292.859C129.845 286.568 133.774 279.404 138.751 273.201C145.3 264.988 165.384 249 192.54 234.497C208.956 225.672 211.838 202.782 218.125 195.705C228.778 183.648 245.019 183.648 257.069 172.814C263.094 167.31 271.914 164.602 277.59 158.836C305.532 130.179 342.905 118.559 379.928 111.657C404.901 107.026 432.669 114.19 458.69 118.559C462.532 119.17 466.2 120.131 469.693 121.18C528.197 123.189 598.664 135.333 624.074 160.233C639.966 175.698 647.737 192.647 651.492 204.267C655.683 217.285 661.534 229.691 668.694 241.311L684.324 266.823C694.279 282.986 697.509 302.382 693.231 320.817C690.786 331.301 689.563 342.309 692.619 348.425C697.509 358.036 712.528 373.587 721.522 382.499C725.888 386.78 730.691 390.624 735.843 393.944C747.893 401.545 770.683 416.136 770.77 417.446C770.77 419.193 772.692 426.445 762.563 435.182C752.433 444.006 733.485 457.898 733.485 457.898C733.485 457.898 734.446 464.276 737.152 469.43C739.859 474.585 746.408 482.099 744.4 489.001C742.392 495.903 728.333 501.32 732.35 509.008C736.367 516.609 746.234 519.056 743.439 525.958C740.558 532.86 726.674 544.742 728.071 549.897C729.468 555.051 740.733 602.405 714.711 610.618C695.152 616.821 641.363 620.316 616.04 621.713C605.125 622.325 595.346 628.441 590.106 638.051C586.177 645.216 582.335 655.088 580.414 668.281C575.524 701.83 542.343 778.889 542.343 778.889C542.343 778.889 541.382 780.811 539.81 784.044C536.929 791.033 532.825 801.954 533.436 806.323C533.785 809.206 537.715 814.798 543.478 821.612C548.018 827.029 555.44 829.126 562.164 826.854C732.437 768.667 853.288 605.638 849.358 416.048" fill="#00DACC"/>
</g>
<defs>
<clipPath id="clip0_7_50">
<rect width="847" height="830" fill="white"/>
</clipPath>
</defs>
</svg>
